<svg width="88" height="88" viewBox="0 0 88 88" fill="none" xmlns="http://www.w3.org/2000/svg">
<g clip-path="url(#clip0_5977_8976)">
<path d="M59.3697 30.6562H19.4297V37.4162H59.3697V30.6562Z" fill="#D7ECF7"/>
<path fill-rule="evenodd" clip-rule="evenodd" d="M69.0003 25.5469C70.4093 25.543 71.8052 25.8171 73.1081 26.3535C74.4109 26.89 75.5951 27.6783 76.5928 28.6732C77.5905 29.6681 78.3821 30.8501 78.9222 32.1514C79.4623 33.4528 79.7403 34.8479 79.7403 36.2569C79.7403 40.2102 76.1703 45.2836 69.0303 51.4769C61.8903 45.2769 58.3203 40.2036 58.3203 36.2569C58.3229 33.4224 59.448 30.7044 61.4495 28.6973C63.451 26.6902 66.1659 25.5575 69.0003 25.5469ZM69.0003 32.3169C68.3322 32.3189 67.6797 32.5188 67.1252 32.8914C66.5707 33.264 66.139 33.7926 65.8847 34.4104C65.6305 35.0281 65.5649 35.7074 65.6965 36.3624C65.828 37.0174 66.1507 37.6187 66.6238 38.0905C67.0969 38.5622 67.6992 38.8831 68.3546 39.0127C69.01 39.1423 69.6891 39.0748 70.3061 38.8187C70.9231 38.5625 71.4504 38.1293 71.8214 37.5737C72.1923 37.0181 72.3903 36.365 72.3903 35.6969C72.3903 35.2522 72.3026 34.8119 72.1321 34.4011C71.9616 33.9904 71.7117 33.6173 71.3968 33.3034C71.0819 32.9894 70.7081 32.7406 70.2969 32.5713C69.8856 32.4021 69.445 32.3156 69.0003 32.3169Z" fill="#D7ECF7"/>
<path d="M45.7183 40.9965L45.3283 41.3565C45.1783 41.3565 45.0983 41.3565 44.7683 41.0465C44.3373 40.6711 43.836 40.385 43.2936 40.2048C42.7511 40.0245 42.1783 39.9537 41.6083 39.9965C40.894 40.0032 40.1885 40.1557 39.5351 40.4446C38.8817 40.7334 38.2941 41.1526 37.8083 41.6765C36.8491 42.7707 36.3203 44.1763 36.3203 45.6315C36.3203 47.0866 36.8491 48.4922 37.8083 49.5865C38.2941 50.1103 38.8817 50.5295 39.5351 50.8184C40.1885 51.1072 40.894 51.2597 41.6083 51.2665C42.5308 51.2631 43.4353 51.0116 44.2271 50.5383C45.0188 50.065 45.6687 49.3874 46.1083 48.5765V48.3865L44.2583 47.2965V47.4865C44.0196 47.9781 43.645 48.391 43.1789 48.6763C42.7128 48.9616 42.1747 49.1074 41.6283 49.0965C41.2098 49.0979 40.7959 49.0093 40.4146 48.8368C40.0333 48.6643 39.6935 48.4118 39.4183 48.0965C38.8213 47.4004 38.4931 46.5136 38.4931 45.5965C38.4931 44.6794 38.8213 43.7926 39.4183 43.0965C39.69 42.7822 40.0263 42.5301 40.4042 42.3576C40.7822 42.185 41.1929 42.0959 41.6083 42.0965C41.9401 42.0723 42.2733 42.1157 42.5879 42.2239C42.9024 42.3322 43.1917 42.5032 43.4383 42.7265C43.928 43.1743 44.5649 43.4269 45.2283 43.4365C45.8051 43.4172 46.3569 43.1967 46.7879 42.8131C47.219 42.4295 47.5022 41.9071 47.5883 41.3365V41.1265L45.7183 40.7665V40.9965Z" fill="#1E306E"/>
<path d="M66.7188 50.8187C66.8836 50.9666 67.0973 51.0485 67.3187 51.0487C67.5399 51.0466 67.7529 50.965 67.9187 50.8187C75.3387 44.3787 78.9187 39.1687 78.9187 34.9087C78.924 32.4836 78.1698 30.1178 76.7619 28.1432C75.354 26.1687 73.3632 24.6845 71.0688 23.8992C68.7744 23.1138 66.2917 23.0666 63.9691 23.7641C61.6465 24.4617 59.6007 25.8691 58.1187 27.7887H17.1188C16.9979 27.7887 16.8783 27.8125 16.7667 27.8587C16.6551 27.905 16.5536 27.9727 16.4682 28.0581C16.3828 28.1436 16.315 28.245 16.2688 28.3566C16.2225 28.4682 16.1988 28.5879 16.1988 28.7087V35.4687C16.1988 35.5895 16.2225 35.7091 16.2688 35.8208C16.315 35.9324 16.3828 36.0338 16.4682 36.1192C16.5536 36.2047 16.6551 36.2724 16.7667 36.3187C16.8783 36.3649 16.9979 36.3887 17.1188 36.3887H19.5787V62.7387H14.8888C14.6448 62.7387 14.4107 62.8356 14.2382 63.0081C14.0657 63.1807 13.9688 63.4147 13.9688 63.6587C13.9688 63.9027 14.0657 64.1367 14.2382 64.3092C14.4107 64.4818 14.6448 64.5787 14.8888 64.5787H67.8887C68.1327 64.5787 68.3667 64.4818 68.5393 64.3092C68.7118 64.1367 68.8087 63.9027 68.8087 63.6587C68.8087 63.4147 68.7118 63.1807 68.5393 63.0081C68.3667 62.8356 68.1327 62.7387 67.8887 62.7387H63.1587V47.5387C64.2287 48.5887 65.4087 49.6887 66.7188 50.8187ZM67.3187 25.1187C69.9144 25.1213 72.403 26.1536 74.2384 27.989C76.0738 29.8244 77.1061 32.313 77.1087 34.9087C77.1087 38.4487 73.8187 43.1587 67.3187 48.9087C60.8187 43.1587 57.5187 38.4487 57.5187 34.9087C57.524 32.3121 58.5586 29.8235 60.3956 27.9884C62.2326 26.1533 64.7222 25.1213 67.3187 25.1187ZM18.0587 29.6287H56.9987C56.2146 31.1568 55.784 32.8417 55.7388 34.5587H18.0587V29.6287ZM35.2287 62.7387V56.6887H40.7287V62.7387H35.2287ZM42.5588 62.7387V56.6887H48.0588V62.7387H42.5588ZM49.8887 62.7387V55.7387C49.8887 55.6179 49.865 55.4982 49.8187 55.3866C49.7725 55.275 49.7047 55.1736 49.6193 55.0881C49.5339 55.0027 49.4324 54.9349 49.3208 54.8887C49.2092 54.8425 49.0896 54.8187 48.9688 54.8187H34.3187C34.1979 54.8187 34.0783 54.8425 33.9667 54.8887C33.8551 54.9349 33.7536 55.0027 33.6682 55.0881C33.5828 55.1736 33.515 55.275 33.4688 55.3866C33.4225 55.4982 33.3988 55.6179 33.3988 55.7387V62.7387H21.4488V36.3887H55.8288C56.3288 39.0887 58.1388 42.1487 61.3288 45.6287V62.7387H49.8887Z" fill="#1E306E"/>
<path d="M67.3195 38.6469C68.17 38.6469 69.0014 38.3947 69.7085 37.9222C70.4156 37.4497 70.9668 36.7781 71.2922 35.9924C71.6177 35.2067 71.7028 34.3421 71.5369 33.508C71.371 32.6739 70.9615 31.9077 70.3601 31.3063C69.7587 30.705 68.9925 30.2954 68.1584 30.1295C67.3243 29.9636 66.4597 30.0487 65.674 30.3742C64.8883 30.6997 64.2167 31.2508 63.7442 31.9579C63.2717 32.6651 63.0195 33.4964 63.0195 34.3469C63.0222 35.4865 63.4761 36.5787 64.2819 37.3845C65.0877 38.1904 66.1799 38.6442 67.3195 38.6469ZM67.3195 31.8769C67.8081 31.8769 68.2856 32.0217 68.6918 32.2931C69.098 32.5646 69.4146 32.9503 69.6015 33.4017C69.7885 33.853 69.8374 34.3496 69.7421 34.8288C69.6468 35.3079 69.4115 35.748 69.0661 36.0934C68.7206 36.4389 68.2805 36.6741 67.8014 36.7694C67.3223 36.8647 66.8256 36.8158 66.3743 36.6289C65.923 36.4419 65.5372 36.1253 65.2658 35.7191C64.9944 35.3129 64.8495 34.8354 64.8495 34.3469C64.8495 33.6918 65.1098 33.0635 65.573 32.6003C66.0362 32.1371 66.6644 31.8769 67.3195 31.8769Z" fill="#1E306E"/>
</g>
<defs>
<clipPath id="clip0_5977_8976">
<rect width="88" height="88" fill="white"/>
</clipPath>
</defs>
</svg>
