<svg xmlns="http://www.w3.org/2000/svg" width="88" height="88" viewBox="0 0 88 88"><path fill="#ebf5fb" d="M72.9 49.3h-10v-5.5s.1-.3.3-.7H71c.8 0 1.5-.7 1.5-1.5s-.7-1.5-1.5-1.5h-7.7c-.1-.5-.4-1-.8-1.5-.9-1-1.6-2.1-2.8-2.1H25.6c-2.1 3.2-1.9 1.5-2.3 2.1L21 41.3c-.4.6-4.1.2-4.8.2h-2.7c-1 .8-.7 8.3-.7 8.9l.1 4c0 .6.2 2.6 2 2.6l5 .1c.3 2.2 2.2 4 4.5 4s4.1-1.6 4.5-3.8l9.7.2h6.3c.5 2 2.3 3.5 4.5 3.5s3.9-1.5 4.4-3.5h1.1c4.8 0 6.7-2.9 7.4-5.3h10.6c.8 0 1.5-.7 1.5-1.5s-.7-1.4-1.5-1.4z"/><path fill="#1e306e" d="M62.6 45.8h-6.9c-.5 0-.9.4-.9.9s.4.9.9.9H79c.5 0 .9-.4.9-.9s-.4-.9-.9-.9H64.4V31.3c0-1.6-1.3-3-3-3H30.5c-1 0-1.9.5-2.5 1.3l-7 10.3c-.2.3-.6.5-1 .5h-6c-1.1 0-1.9.9-1.9 1.9v11c0 1.1.9 1.9 1.9 1.9h7c.4 2.3 2.5 4.1 5 4.1s4.5-1.8 5-4.1h15c.5 2.3 2.5 4.1 5 4.1s4.5-1.8 5-4.1h7.7c.5 0 .9-.4.9-.9s-.4-.9-.9-.9H56c-.4-2.4-2.5-4.2-5-4.2s-4.6 1.8-5 4.2H31c-.4-2.4-2.5-4.2-5-4.2s-4.6 1.8-5 4.2h-6.8c-.1 0-.1-.1-.1-.1v-11c0-.1.1-.1.1-.1h6c1 0 1.9-.5 2.5-1.3l7-10.3c.2-.3.6-.5 1-.5h30.9c.6 0 1.2.5 1.2 1.2m-11.9 20c1.8 0 3.2 1.5 3.2 3.2s-1.5 3.2-3.2 3.2-3.2-1.5-3.2-3.2 1.4-3.2 3.2-3.2zm-24.9 0c1.8 0 3.2 1.5 3.2 3.2s-1.5 3.2-3.2 3.2-3.2-1.5-3.2-3.2 1.4-3.2 3.2-3.2z"/></svg>