<svg width="80" height="80" viewBox="0 0 80 80" fill="none" xmlns="http://www.w3.org/2000/svg">
<path fill-rule="evenodd" clip-rule="evenodd" d="M9.02637 40.1631L11.5364 32.5156L31.5014 41.7056L70.6339 41.8581L69.7664 49.5056L29.8439 49.9156L9.02637 40.1631Z" fill="#D7ECF7"/>
<path fill-rule="evenodd" clip-rule="evenodd" d="M68.4992 49.0002H68.5267C68.7717 49.0002 69.0142 48.9302 69.2092 48.7802C69.4542 48.5527 69.6342 48.1752 69.6542 47.7627L70.0192 43.9477C70.1442 43.1177 69.9567 42.3427 69.4917 41.7077L64.5192 34.2902C63.9142 33.5352 62.9417 33.0702 61.8992 33.0702H61.8967H34.3892C33.0717 33.0027 31.8317 32.7252 30.6592 32.2402L19.9567 26.6277C19.2142 26.1952 18.3142 26.3027 17.7267 26.8727L11.9642 33.4152L10.0592 38.3027C9.92166 38.6202 9.90666 38.9452 10.0067 39.2427C10.0917 39.4527 10.2942 39.6577 10.5467 39.7577L27.9567 48.2502C29.0017 48.7202 30.1392 48.9777 31.3167 49.0002H68.4992ZM68.5567 50.8302H68.4867H31.2967C29.8542 50.8002 28.4767 50.4902 27.1792 49.9077L9.80666 41.4302C9.15166 41.1702 8.57666 40.5927 8.28916 39.8702C8.02916 39.0927 8.06166 38.3027 8.36916 37.6002L10.5817 32.2152L16.4042 25.6102C17.6267 24.4177 19.4317 24.1977 20.8442 25.0302L31.4317 30.5852C32.3367 30.9527 33.3742 31.1877 34.4367 31.2402H61.8967H61.9017C63.4992 31.2402 64.9917 31.9577 65.9942 33.2102L70.9917 40.6602C71.7217 41.6552 72.0267 42.9152 71.8342 44.1727L71.4792 47.8977C71.4367 48.7552 71.0467 49.5802 70.3817 50.1827C69.8217 50.6177 69.1942 50.8302 68.5567 50.8302Z" fill="#212B64"/>
<path fill-rule="evenodd" clip-rule="evenodd" d="M65.7437 42.7718H32.8887C31.8112 42.7718 30.7287 42.5268 29.7537 42.0643L15.4087 35.2493C14.9512 35.0318 14.7562 34.4868 14.9737 34.0293C15.1887 33.5743 15.7312 33.3793 16.1937 33.5968L30.5387 40.4118C31.2687 40.7568 32.0812 40.9418 32.8887 40.9418H65.7437C66.2487 40.9418 66.6587 41.3518 66.6587 41.8568C66.6587 42.3618 66.2487 42.7718 65.7437 42.7718Z" fill="#212B64"/>
<path fill-rule="evenodd" clip-rule="evenodd" d="M17.1025 41.2456L18.5425 38.3281L20.865 39.4006L19.425 42.3181L17.1025 41.2456Z" fill="#212B64"/>
<path fill-rule="evenodd" clip-rule="evenodd" d="M14.0693 48.7231C13.9393 48.7231 13.8093 48.6956 13.6843 48.6381C13.2268 48.4256 13.0268 47.8806 13.2393 47.4231L18.1893 36.7406C18.4043 36.2781 18.9468 36.0856 19.4043 36.2956C19.8643 36.5081 20.0618 37.0531 19.8518 37.5106L14.8993 48.1931C14.7443 48.5256 14.4143 48.7231 14.0693 48.7231Z" fill="#212B64"/>
<path fill-rule="evenodd" clip-rule="evenodd" d="M59.9433 55.465C59.4383 55.465 59.0283 55.055 59.0283 54.55V49.915C59.0283 49.41 59.4383 49 59.9433 49C60.4483 49 60.8583 49.41 60.8583 49.915V54.55C60.8583 55.055 60.4483 55.465 59.9433 55.465Z" fill="#212B64"/>
<path fill-rule="evenodd" clip-rule="evenodd" d="M14.5439 55.4625C14.0389 55.4625 13.6289 55.0525 13.6289 54.5475V47.415C13.6289 46.91 14.0389 46.5 14.5439 46.5C15.0489 46.5 15.4589 46.91 15.4589 47.415V54.5475C15.4589 55.0525 15.0489 55.4625 14.5439 55.4625Z" fill="#212B64"/>
<path fill-rule="evenodd" clip-rule="evenodd" d="M24.9558 48.7206H12.1333C11.6258 48.7206 11.2158 48.3106 11.2158 47.8056C11.2158 47.3006 11.6258 46.8906 12.1333 46.8906H24.9558C25.4608 46.8906 25.8708 47.3006 25.8708 47.8056C25.8708 48.3106 25.4608 48.7206 24.9558 48.7206Z" fill="#212B64"/>
</svg>
