<svg xmlns="http://www.w3.org/2000/svg" viewBox="0 0 200 200"><defs><style>.cls-3{fill:#4782b2}</style></defs><g style="isolation:isolate"><g id="Layer_2" data-name="Layer 2"><g id="Layer_1-2" data-name="Layer 1"><circle cx="100" cy="100" r="100" style="mix-blend-mode:multiply" fill="#f4f4f4"/><path d="M56 170.77H42.68a.07.07 0 0 1-.06 0 .07.07 0 0 1 0-.07c1.15-4.51 3.28-13 4.72-18.83a3 3 0 0 0-5.83-1.43l-.9 3.65c-1.32 5.33-2.89 11.5-3.81 15.13a6.08 6.08 0 0 0 5.89 7.58h8.82l-1.83 4.5a19 19 0 0 0-1.2 4.44q2.85 1.72 5.81 3.25a13 13 0 0 1 .95-5.42l3.52-8.63a3 3 0 0 0-2.76-4.17z"/><circle cx="87.36" cy="118.5" r="9.7"/><path d="M115.54 154.06l-.9-3.65a3 3 0 0 0-5.83 1.43c1.44 5.87 3.58 14.32 4.72 18.83a.07.07 0 0 1 0 .07.07.07 0 0 1-.06 0h-13.3a3 3 0 0 0-2.78 4.13l3.52 8.63a13 13 0 0 1-1.55 12.55l-2.83 3.86q1.73.06 3.47.06 2 0 4-.08l.21-.29a19 19 0 0 0 2.27-18.37l-1.83-4.5h8.82a6.08 6.08 0 0 0 5.89-7.58c-.93-3.59-2.5-9.77-3.82-15.09zM112.1 115a19.66 19.66 0 0 0 10.49 3 20 20 0 0 0 4.45-.5 3 3 0 0 0-1.33-5.85 13.79 13.79 0 0 1-16.52-10.39 3 3 0 1 0-5.85 1.33A19.67 19.67 0 0 0 112.1 115z"/><path d="M185 84.7a32.34 32.34 0 0 0-19.88-15.82 36.91 36.91 0 0 0-12.92-1.36q-.79.06-1.58.15a30.68 30.68 0 0 0 1.8-33.67 3 3 0 1 0-5.18 3 24.64 24.64 0 0 1-3.4 29.41 47.94 47.94 0 0 0-38-49.4 3 3 0 0 0-1.24 5.87 42 42 0 0 1 33.27 42.5L136.16 63c-8.29-11.7-12.46-17.57-27.72-25.2a70.41 70.41 0 0 0-21.53-6.37A116.05 116.05 0 0 0 66 30.5a135.83 135.83 0 0 0-22.34 2.67A3 3 0 0 0 42 38a73 73 0 0 0 11.82 10.9A99.22 99.22 0 0 0 68.24 58q2.26 1.17 4.59 2.22c-3.22-.75-7.33-1.65-11.88-2.48-14.27-2.6-25.53-3.24-33.47-1.91a3 3 0 1 0 1 5.92c10.46-1.75 26.18.74 37.15 3-2.24 1-6.16 2.76-11.1 4.55-7.19 2.59-18.08 5.83-29.17 6.58a3 3 0 0 0-1.36 5.6c.43.25 9 5.3 24.28 9C39 98.37 26.15 101.55 26 101.58a3 3 0 1 0 1.4 5.84 68.76 68.76 0 0 0 11.14-4 57.34 57.34 0 0 0 13.34-8.16c-6.07 11.64-16.29 24.74-16.4 24.85a3 3 0 0 0 3.56 4.6 68 68 0 0 0 17.22-11.62v20.77a3 3 0 0 0 6 0v-34a38.22 38.22 0 0 1 .64-7 136.92 136.92 0 0 0 23.33 1.43 141.26 141.26 0 0 0 26.59-3.2 123.93 123.93 0 0 0 21.73-6.75 37.31 37.31 0 0 1 1.38 3.54l.05.19a37.62 37.62 0 0 1 1.75 8.76q0 .37.05.74V104.21c0 .17 0 .34-.06.52v.12q0 .29-.08.59-.06.42-.14.83v.09q-.06.37-.14.73v.06l-.14.65a37.57 37.57 0 0 1-7.21 15.29l-.05.07q-.78 1-1.63 1.92a3 3 0 0 0-.65.7l-.67.69a37.55 37.55 0 0 1-26.73 11.07h-1.9a3 3 0 0 0 0 6H102.23a43.63 43.63 0 0 0 25-9.19v17.39a3 3 0 0 0 6 0v-18.39a58.88 58.88 0 0 0 16.1 17.42l.08.05.12.07h.08l.14.07h.07l.14.06h1a3 3 0 0 0 .53 0H151.72a3 3 0 0 0 2.13-3.67c-2.65-10-3.78-17.61-3.56-24a41 41 0 0 1 1-7.74 37.32 37.32 0 0 0 1.14 4.66 36.74 36.74 0 0 0 9.52 15.33 3 3 0 0 0 4.19-4.29 30.8 30.8 0 0 1-8-12.84 36.15 36.15 0 0 1-1-16.31l14.21 17.21a3 3 0 0 0 5.3-1.6 39.9 39.9 0 0 0-9.8-29.77 45.64 45.64 0 0 0-12.35-10.27 46.51 46.51 0 0 0-7.3-3.37 31.6 31.6 0 0 1 5.45-.86 30.92 30.92 0 0 1 10.82 1.13 26.39 26.39 0 0 1 16.25 12.87 3 3 0 0 0 5.28-2.8z"/><path d="M101.77 190a13 13 0 0 0-.86-6.48l-3.51-8.62a3 3 0 0 1 2.78-4.13h13.28a.07.07 0 0 0 .06 0 .07.07 0 0 0 0-.07c-1.15-4.51-3.28-13-4.72-18.83a3 3 0 0 1 .54-2.54l-7.34-5.67H98.15a3 3 0 0 1-.79-.11l-15 54.85a100.36 100.36 0 0 0 14.19 1.49l2.83-3.86a13 13 0 0 0 2.39-6.03zM46.78 149.3a3 3 0 0 1 .54 2.54c-1.44 5.88-3.58 14.32-4.72 18.83a.07.07 0 0 0 0 .07.07.07 0 0 0 .06 0H56a3 3 0 0 1 2.78 4.13l-3.52 8.63a13 13 0 0 0-.95 5.42 99.33 99.33 0 0 0 18.95 7.42L58 140.7z" class="cls-3"/><path d="M119.35 169.19a6.08 6.08 0 0 1-5.89 7.58h-8.82l1.83 4.5a19 19 0 0 1-2.27 18.37l-.21.29a99.46 99.46 0 0 0 50.4-16l-38.85-29.87c1.32 5.32 2.89 11.5 3.81 15.13zM51.49 176.77h-8.81a6.08 6.08 0 0 1-5.89-7.58c.92-3.63 2.49-9.8 3.81-15.13l-15.64 12a100.48 100.48 0 0 0 23.51 19.62 19 19 0 0 1 1.2-4.44z" class="cls-3"/></g></g></g></svg>