<svg width="58" height="58" viewBox="0 0 58 58" fill="none" xmlns="http://www.w3.org/2000/svg">
<g clip-path="url(#clip0_1022_136)">
<mask id="mask0_1022_136" style="mask-type:alpha" maskUnits="userSpaceOnUse" x="16" y="9" width="24" height="41">
<path d="M27.2257 24.2419L20.5476 21.9117L18.4057 25.5544L25.0838 27.8846L27.2257 24.2419ZM25.1544 29.201L17.3209 26.4676C16.9608 26.342 16.806 25.9071 17.0024 25.5729L19.7745 20.8584C19.9193 20.6122 20.2117 20.5027 20.477 20.5953L28.3105 23.3286C28.6706 23.4543 28.8254 23.8892 28.629 24.2233L25.8568 28.9379C25.7121 29.1841 25.4197 29.2936 25.1544 29.201ZM31.637 29.201C31.3716 29.2936 31.0792 29.1841 30.9345 28.9379L28.1624 24.2233C27.966 23.8893 28.1206 23.4546 28.4805 23.3288L36.296 20.5954C36.5609 20.5028 36.8529 20.6116 36.998 20.8569L39.788 25.5714C39.9858 25.9056 39.8312 26.3417 39.4704 26.4676L31.637 29.201ZM38.3836 25.5551L36.2274 21.9115L29.5654 24.2414L31.7075 27.8846L38.3836 25.5551ZM35.7492 45.598V27.0444C35.7492 26.7067 36.0161 26.433 36.3453 26.433C36.6746 26.433 36.9415 26.7067 36.9415 27.0444V46.0311C36.9415 46.2906 36.7819 46.5218 36.5432 46.6079L28.5131 49.5063C28.3839 49.553 28.243 49.5526 28.1141 49.5052L20.227 46.6067C19.9901 46.5197 19.832 46.2893 19.832 46.0311V27.0444C19.832 26.7067 20.0989 26.433 20.4281 26.433C20.7574 26.433 21.0243 26.7067 21.0243 27.0444V45.6006L28.317 48.2806L35.7492 45.598ZM34.2469 14.0748C34.2469 13.7371 34.5138 13.4633 34.843 13.4633C35.1723 13.4633 35.4392 13.7371 35.4392 14.0748V21.2476C35.4392 21.5853 35.1723 21.859 34.843 21.859C34.5138 21.859 34.2469 21.5853 34.2469 21.2476V14.0748ZM27.719 23.8341C27.719 23.4964 27.9859 23.2227 28.3152 23.2227C28.6444 23.2227 28.9113 23.4964 28.9113 23.8341V48.9295C28.9113 49.2672 28.6444 49.541 28.3152 49.541C27.9859 49.541 27.719 49.2672 27.719 48.9295V23.8341ZM36.4623 20.429C36.7747 20.5358 36.9435 20.8821 36.8394 21.2024C36.7353 21.5228 36.3976 21.696 36.0853 21.5892L34.583 21.0755C34.2706 20.9687 34.1018 20.6224 34.206 20.3021C34.3101 19.9817 34.6477 19.8085 34.96 19.9153L36.4623 20.429ZM20.5451 21.5892C20.2327 21.696 19.8951 21.5228 19.791 21.2024C19.6869 20.8821 19.8557 20.5358 20.168 20.429L21.6703 19.9153C21.9827 19.8085 22.3203 19.9817 22.4244 20.3021C22.5285 20.6224 22.3597 20.9687 22.0474 21.0755L20.5451 21.5892ZM36.0743 20.3595C36.3846 20.2465 36.7254 20.4129 36.8356 20.7311C36.9458 21.0494 36.7835 21.3989 36.4733 21.5119L28.5147 24.4104C28.3872 24.4568 28.2481 24.4574 28.1202 24.412L20.1616 21.5869C19.8505 21.4765 19.6855 21.1282 19.7932 20.8091C19.9009 20.49 20.2404 20.3208 20.5515 20.4312L28.3127 23.1862L36.0743 20.3595ZM24.6607 14.8073C24.7898 15.1179 24.649 15.4771 24.3461 15.6096C24.0433 15.742 23.6931 15.5976 23.5639 15.2869C22.3337 12.3273 25.2335 9.66602 29.6029 9.66602C33.5264 9.66602 35.4571 11.2959 35.4571 13.818C35.4571 17.6975 31.5654 19.5801 25.9123 18.6041C25.3882 18.5166 25.1977 18.5629 25.1458 18.641C25.0758 18.7462 25.0483 18.9823 25.0483 19.5965V22.4216C25.0483 22.7593 24.7814 23.0331 24.4521 23.0331C24.1229 23.0331 23.856 22.7593 23.856 22.4216V19.5965C23.856 18.7036 23.8975 18.3478 24.1609 17.9518C24.5292 17.3979 25.1723 17.2415 26.107 17.3976C31.1365 18.2659 34.2648 16.7526 34.2648 13.818C34.2648 12.0297 32.9136 10.889 29.6029 10.889C25.9673 10.889 23.8426 12.839 24.6607 14.8073ZM30.9919 14.0748C30.9919 13.8219 29.903 13.461 28.7641 13.6148C27.6396 13.7667 27.1883 14.1923 27.488 14.9396C29.8876 15.066 30.9919 14.7571 30.9919 14.0748ZM28.6085 12.4023C30.3762 12.1636 32.1842 12.7628 32.1842 14.0748C32.1842 16.209 29.8618 16.5336 24.8993 15.9293C24.7725 15.9136 24.8455 15.9258 24.3946 15.8483C24.0995 15.7975 23.914 15.773 23.7297 15.7653C22.8866 15.7299 22.5266 16.0945 22.5266 17.5786V21.5411C22.5266 21.8788 22.2597 22.1526 21.9304 22.1526C21.6012 22.1526 21.3343 21.8788 21.3343 21.5411V17.5786C21.3343 15.4072 22.2505 14.4793 23.7784 14.5433C24.025 14.5536 24.251 14.5835 24.5918 14.6421C25.005 14.7132 24.9438 14.703 25.0411 14.715C25.4554 14.7655 25.8467 14.8082 26.2154 14.8434C25.9829 13.5284 27.0029 12.6191 28.6085 12.4023ZM36.3152 26.3552L36.6974 27.5136L28.3135 30.4239L20.073 27.5125L20.4613 26.3562L28.3169 29.1316L36.3152 26.3552ZM36.3163 29.455L36.6963 30.6142L28.3135 33.5054L20.0741 30.6132L20.4602 29.4561L28.3169 32.214L36.3163 29.455ZM36.3163 35.4353L36.6963 36.5945L28.3135 39.4857L20.0741 36.5935L20.4602 35.4364L28.3169 38.1943L36.3163 35.4353ZM28.3169 41.2945L36.3163 38.5356L36.6963 39.6948L28.3135 42.586L20.0741 39.6937L20.4602 38.5366L28.3169 41.2945ZM36.3141 41.5999L36.6985 42.7576L28.3135 45.6871L20.0719 42.7565L20.4624 41.601L28.3169 44.3939L36.3141 41.5999Z" fill="white"/>
</mask>
<g mask="url(#mask0_1022_136)">
<path d="M27.2257 24.2419L20.5476 21.9117L18.4057 25.5544L25.0838 27.8846L27.2257 24.2419ZM25.1544 29.201L17.3209 26.4676C16.9608 26.342 16.806 25.9071 17.0024 25.5729L19.7745 20.8584C19.9193 20.6122 20.2117 20.5027 20.477 20.5953L28.3105 23.3286C28.6706 23.4543 28.8254 23.8892 28.629 24.2233L25.8568 28.9379C25.7121 29.1841 25.4197 29.2936 25.1544 29.201ZM31.637 29.201C31.3716 29.2936 31.0792 29.1841 30.9345 28.9379L28.1624 24.2233C27.966 23.8893 28.1206 23.4546 28.4805 23.3288L36.296 20.5954C36.5609 20.5028 36.8529 20.6116 36.998 20.8569L39.788 25.5714C39.9858 25.9056 39.8312 26.3417 39.4704 26.4676L31.637 29.201ZM38.3836 25.5551L36.2274 21.9115L29.5654 24.2414L31.7075 27.8846L38.3836 25.5551ZM35.7492 45.598V27.0444C35.7492 26.7067 36.0161 26.433 36.3453 26.433C36.6746 26.433 36.9415 26.7067 36.9415 27.0444V46.0311C36.9415 46.2906 36.7819 46.5218 36.5432 46.6079L28.5131 49.5063C28.3839 49.553 28.243 49.5526 28.1141 49.5052L20.227 46.6067C19.9901 46.5197 19.832 46.2893 19.832 46.0311V27.0444C19.832 26.7067 20.0989 26.433 20.4281 26.433C20.7574 26.433 21.0243 26.7067 21.0243 27.0444V45.6006L28.317 48.2806L35.7492 45.598ZM34.2469 14.0748C34.2469 13.7371 34.5138 13.4633 34.843 13.4633C35.1723 13.4633 35.4392 13.7371 35.4392 14.0748V21.2476C35.4392 21.5853 35.1723 21.859 34.843 21.859C34.5138 21.859 34.2469 21.5853 34.2469 21.2476V14.0748ZM27.719 23.8341C27.719 23.4964 27.9859 23.2227 28.3152 23.2227C28.6444 23.2227 28.9113 23.4964 28.9113 23.8341V48.9295C28.9113 49.2672 28.6444 49.541 28.3152 49.541C27.9859 49.541 27.719 49.2672 27.719 48.9295V23.8341ZM36.4623 20.429C36.7747 20.5358 36.9435 20.8821 36.8394 21.2024C36.7353 21.5228 36.3976 21.696 36.0853 21.5892L34.583 21.0755C34.2706 20.9687 34.1018 20.6224 34.206 20.3021C34.3101 19.9817 34.6477 19.8085 34.96 19.9153L36.4623 20.429ZM20.5451 21.5892C20.2327 21.696 19.8951 21.5228 19.791 21.2024C19.6869 20.8821 19.8557 20.5358 20.168 20.429L21.6703 19.9153C21.9827 19.8085 22.3203 19.9817 22.4244 20.3021C22.5285 20.6224 22.3597 20.9687 22.0474 21.0755L20.5451 21.5892ZM36.0743 20.3595C36.3846 20.2465 36.7254 20.4129 36.8356 20.7311C36.9458 21.0494 36.7835 21.3989 36.4733 21.5119L28.5147 24.4104C28.3872 24.4568 28.2481 24.4574 28.1202 24.412L20.1616 21.5869C19.8505 21.4765 19.6855 21.1282 19.7932 20.8091C19.9009 20.49 20.2404 20.3208 20.5515 20.4312L28.3127 23.1862L36.0743 20.3595ZM24.6607 14.8073C24.7898 15.1179 24.649 15.4771 24.3461 15.6096C24.0433 15.742 23.6931 15.5976 23.5639 15.2869C22.3337 12.3273 25.2335 9.66602 29.6029 9.66602C33.5264 9.66602 35.4571 11.2959 35.4571 13.818C35.4571 17.6975 31.5654 19.5801 25.9123 18.6041C25.3882 18.5166 25.1977 18.5629 25.1458 18.641C25.0758 18.7462 25.0483 18.9823 25.0483 19.5965V22.4216C25.0483 22.7593 24.7814 23.0331 24.4521 23.0331C24.1229 23.0331 23.856 22.7593 23.856 22.4216V19.5965C23.856 18.7036 23.8975 18.3478 24.1609 17.9518C24.5292 17.3979 25.1723 17.2415 26.107 17.3976C31.1365 18.2659 34.2648 16.7526 34.2648 13.818C34.2648 12.0297 32.9136 10.889 29.6029 10.889C25.9673 10.889 23.8426 12.839 24.6607 14.8073ZM30.9919 14.0748C30.9919 13.8219 29.903 13.461 28.7641 13.6148C27.6396 13.7667 27.1883 14.1923 27.488 14.9396C29.8876 15.066 30.9919 14.7571 30.9919 14.0748ZM28.6085 12.4023C30.3762 12.1636 32.1842 12.7628 32.1842 14.0748C32.1842 16.209 29.8618 16.5336 24.8993 15.9293C24.7725 15.9136 24.8455 15.9258 24.3946 15.8483C24.0995 15.7975 23.914 15.773 23.7297 15.7653C22.8866 15.7299 22.5266 16.0945 22.5266 17.5786V21.5411C22.5266 21.8788 22.2597 22.1526 21.9304 22.1526C21.6012 22.1526 21.3343 21.8788 21.3343 21.5411V17.5786C21.3343 15.4072 22.2505 14.4793 23.7784 14.5433C24.025 14.5536 24.251 14.5835 24.5918 14.6421C25.005 14.7132 24.9438 14.703 25.0411 14.715C25.4554 14.7655 25.8467 14.8082 26.2154 14.8434C25.9829 13.5284 27.0029 12.6191 28.6085 12.4023ZM36.3152 26.3552L36.6974 27.5136L28.3135 30.4239L20.073 27.5125L20.4613 26.3562L28.3169 29.1316L36.3152 26.3552ZM36.3163 29.455L36.6963 30.6142L28.3135 33.5054L20.0741 30.6132L20.4602 29.4561L28.3169 32.214L36.3163 29.455ZM36.3163 35.4353L36.6963 36.5945L28.3135 39.4857L20.0741 36.5935L20.4602 35.4364L28.3169 38.1943L36.3163 35.4353ZM28.3169 41.2945L36.3163 38.5356L36.6963 39.6948L28.3135 42.586L20.0741 39.6937L20.4602 38.5366L28.3169 41.2945ZM36.3141 41.5999L36.6985 42.7576L28.3135 45.6871L20.0719 42.7565L20.4624 41.601L28.3169 44.3939L36.3141 41.5999Z" fill="black"/>
<path d="M52.059 0H4.73264C2.11887 0 0 2.20904 0 4.93403V54.2743C0 56.9993 2.11887 59.2083 4.73264 59.2083H52.059C54.6728 59.2083 56.7917 56.9993 56.7917 54.2743V4.93403C56.7917 2.20904 54.6728 0 52.059 0Z" fill="#1E306E"/>
</g>
</g>
<defs>
<clipPath id="clip0_1022_136">
<rect width="58" height="58" fill="white"/>
</clipPath>
</defs>
</svg>
