<svg width="58" height="58" viewBox="0 0 58 58" fill="none" xmlns="http://www.w3.org/2000/svg">
<g clip-path="url(#clip0_4221_41910)">
<path d="M12.1473 39.2708C10.939 24.7708 27.2515 18.125 27.2515 18.125C16.3765 28.3958 15.1681 43.5 25.0682 49.5417C25.0682 49.5417 12.7451 46.4448 12.1473 39.2708Z" fill="#D7ECF7"/>
<path d="M29.6679 33.5024C27.367 32.9998 26.071 31.97 26.2297 30.7442C26.629 29.3269 28.1001 28.4038 29.6679 28.5867C31.7837 28.5867 32.8019 29.4448 32.8548 31.2958C32.8749 31.5137 33.0686 31.6827 33.3044 31.6881C33.5475 31.6815 33.7409 31.4968 33.7408 31.2713C33.8123 30.3583 33.4633 29.4599 32.7803 28.7988C32.0973 28.1376 31.1442 27.7755 30.1572 27.8022V25.7795C30.1572 25.5561 29.9618 25.375 29.7208 25.375C29.4798 25.375 29.2844 25.5561 29.2844 25.7795V27.7899C27.4428 27.805 25.8546 28.993 25.4495 30.6584C25.3702 31.2836 25.4495 33.4043 29.5621 34.3359C31.7969 34.814 33.0531 35.856 32.8945 37.1063C32.5425 38.482 31.1921 39.4363 29.6679 39.3864C28.6388 39.489 27.6087 39.2017 26.8116 38.5896C26.374 38.0778 26.1827 37.4218 26.2826 36.7754C26.2936 36.668 26.2579 36.561 26.1834 36.4781C26.1089 36.3952 26.0018 36.3434 25.8859 36.3341C25.7679 36.3239 25.6506 36.3586 25.5608 36.4303C25.471 36.502 25.4165 36.6044 25.4098 36.7141C25.2721 37.5936 25.5464 38.4857 26.1636 39.1658C27.0257 39.8807 28.1552 40.2546 29.3108 40.2077C29.3108 40.2077 29.3108 40.2077 29.3108 40.2813V41.8871C29.3108 42.1106 29.5062 42.2917 29.7472 42.2917C29.9882 42.2917 30.1836 42.1106 30.1836 41.8871V40.2568C30.1836 40.2568 30.1836 40.1955 30.1836 40.1587C31.995 40.053 33.4981 38.8212 33.8333 37.1676C33.7937 36.5179 33.7408 34.3727 29.6679 33.5024Z" fill="#1E306E" stroke="#1E306E" stroke-width="0.3"/>
<path fill-rule="evenodd" clip-rule="evenodd" d="M25.0358 12.6873C25.6528 12.6873 26.0764 12.2312 26.3404 11.8793C26.5683 11.5754 26.7902 11.189 26.9974 10.8284L26.9979 10.8275C27.0473 10.7414 27.096 10.6568 27.1436 10.5751C27.408 10.1219 27.6592 9.72719 27.9328 9.44573C28.2 9.17092 28.4313 9.06234 28.6608 9.06234C28.8902 9.06234 29.1216 9.17092 29.3887 9.44573C29.6624 9.72719 29.9136 10.1219 30.178 10.5751C30.2258 10.6571 30.2746 10.742 30.3242 10.8284L30.3242 10.8285C30.5314 11.1891 30.7533 11.5754 30.9812 11.8793C31.2451 12.2312 31.6688 12.6873 32.2858 12.6873C32.7373 12.6873 33.2655 12.4765 33.7277 12.2639C34.0516 12.1149 34.4099 11.9315 34.7633 11.7506L34.7635 11.7505C34.9367 11.6618 35.1086 11.5738 35.2747 11.4907C35.8012 11.2275 36.2895 11.003 36.7074 10.8777C37.0561 10.7731 37.2648 10.7662 37.3786 10.7877C37.3847 10.8899 37.3656 11.0677 37.2885 11.3319C37.1266 11.8862 36.7638 12.641 36.2381 13.4843C35.254 15.063 33.7773 16.8283 32.2436 18.0083C31.3197 17.695 30.4072 17.5207 29.5313 17.5207C28.1597 17.5207 26.7619 17.7614 25.3776 18.2283C23.6846 16.8522 22.0818 14.9562 21.0508 13.3339C20.529 12.5127 20.1758 11.7959 20.0213 11.2747C19.9506 11.0363 19.9337 10.8785 19.9381 10.7887C20.0508 10.766 20.2604 10.7716 20.6141 10.8777C21.032 11.003 21.5204 11.2275 22.0468 11.4907C22.213 11.5738 22.385 11.6619 22.5582 11.7505L22.5583 11.7506L22.5583 11.7506C22.9117 11.9315 23.27 12.1149 23.5938 12.2639C24.056 12.4765 24.5842 12.6873 25.0358 12.6873ZM24.0964 18.7269C22.4896 17.3151 21.0176 15.5345 20.031 13.9819C19.4834 13.1202 19.0633 12.2945 18.8628 11.6182C18.7638 11.2846 18.703 10.9377 18.7403 10.6203C18.7798 10.2834 18.9429 9.92289 19.3281 9.73029C19.8504 9.46914 20.4642 9.57116 20.9613 9.7203C21.4875 9.87814 22.0564 10.1446 22.5872 10.41C22.7781 10.5054 22.9626 10.5999 23.1414 10.6915L23.1415 10.6915C23.4795 10.8647 23.7971 11.0273 24.0988 11.1661C24.5806 11.3878 24.8832 11.479 25.0358 11.479L25.0347 11.479C25.0347 11.4789 25.035 11.4789 25.0355 11.4788C25.0451 11.4764 25.1523 11.4495 25.3737 11.1543C25.5529 10.9154 25.726 10.6146 25.929 10.2617L25.9291 10.2617L25.9294 10.2611C25.9838 10.1665 26.0404 10.0681 26.0999 9.96625C26.3641 9.5132 26.6793 9.00165 27.0665 8.60343C27.4601 8.19854 27.984 7.854 28.6608 7.854C29.3376 7.854 29.8615 8.19854 30.2551 8.60343C30.6423 9.00165 30.9574 9.5132 31.2217 9.96625C31.2813 10.0683 31.338 10.1669 31.3925 10.2617C31.5956 10.6146 31.7687 10.9154 31.9478 11.1543C32.0577 11.3008 32.1461 11.3901 32.2138 11.4395C32.2455 11.4627 32.2665 11.4725 32.2768 11.4763C32.2819 11.4782 32.2846 11.4788 32.2854 11.4789L32.2859 11.479C32.4385 11.479 32.741 11.3877 33.2227 11.1661C33.5245 11.0273 33.842 10.8647 34.1801 10.6915C34.3588 10.6 34.5434 10.5055 34.7343 10.41C35.2652 10.1446 35.8341 9.87814 36.3602 9.7203C36.8574 9.57116 37.4712 9.46914 37.9935 9.73028C38.3925 9.9298 38.5449 10.3109 38.5791 10.6452C38.612 10.9672 38.5497 11.3235 38.4483 11.6706C38.2428 12.3744 37.8172 13.2353 37.2636 14.1235C36.3382 15.608 34.9926 17.2677 33.5228 18.5252C34.0479 18.7703 34.573 19.0545 35.0933 19.3716C36.9653 20.5123 38.823 22.1052 40.4758 23.9302C43.7619 27.5586 46.3389 32.2199 46.5086 36.2242C46.6779 40.2179 45.0881 43.7258 41.9725 46.219C38.8712 48.7007 34.3014 50.1457 28.5357 50.1457C22.7648 50.1457 17.9869 48.5422 14.9584 45.6494C11.9034 42.7312 10.7053 38.5715 11.9886 33.6799C11.9912 33.67 11.994 33.6602 11.9971 33.6505C14.3722 26.1622 19.0603 20.9504 24.0964 18.7269ZM15.7931 44.7756C13.089 42.1926 11.977 38.5034 13.1535 34.0012C16.2779 24.1675 23.401 18.729 29.5313 18.729C30.9983 18.729 32.7011 19.3289 34.4646 20.4035C36.2199 21.4731 37.9901 22.9856 39.5802 24.7413C42.7799 28.2744 45.1488 32.6756 45.3014 36.2754C45.4545 39.886 44.0313 43.0239 41.2175 45.2755C38.3895 47.5386 34.1134 48.9373 28.5357 48.9373C22.9632 48.9373 18.5267 47.3869 15.7931 44.7756ZM32.286 11.479L32.2859 11.479L32.2859 11.479L32.286 11.479Z" fill="#1E306E"/>
</g>
<defs>
<clipPath id="clip0_4221_41910">
<rect width="58" height="58" fill="white"/>
</clipPath>
</defs>
</svg>
