<svg width="58" height="58" viewBox="0 0 58 58" fill="none" xmlns="http://www.w3.org/2000/svg">
<g clip-path="url(#clip0_1010_126)">
<mask id="mask0_1010_126" style="mask-type:alpha" maskUnits="userSpaceOnUse" x="6" y="15" width="46" height="28">
<path d="M44.7755 24.4562C47.1909 24.4562 49.1491 22.498 49.1491 20.0826C49.1491 17.6671 47.1909 15.709 44.7755 15.709C42.36 15.709 40.4019 17.6671 40.4019 20.0826C40.4019 22.498 42.36 24.4562 44.7755 24.4562Z" stroke="white" stroke-linecap="round" stroke-linejoin="round"/>
<path d="M40.2233 35.6286C38.8844 35.6286 38.4381 35.0038 38.6167 33.3079C39.0629 29.2914 40.5803 25.9889 42.7225 25.007C42.901 24.9178 45.3109 24.293 46.739 25.007C49.506 26.3459 50.3093 31.0765 50.6663 33.2187V33.3079C50.9341 34.9146 50.5771 35.6286 49.3275 35.6286C47.0068 35.5394 42.544 35.6286 40.2233 35.6286Z" stroke="white" stroke-linecap="round" stroke-linejoin="round"/>
<path d="M13.4463 24.4562C15.8618 24.4562 17.8199 22.498 17.8199 20.0826C17.8199 17.6671 15.8618 15.709 13.4463 15.709C11.0309 15.709 9.07274 17.6671 9.07274 20.0826C9.07274 22.498 11.0309 24.4562 13.4463 24.4562Z" stroke="white" stroke-linecap="round" stroke-linejoin="round"/>
<path d="M8.89413 35.6286C7.55528 35.6286 7.10899 35.0038 7.28751 33.3079C7.73379 29.2914 9.25116 25.9889 11.3933 25.007C11.5718 24.9178 13.9818 24.293 15.4099 25.007C18.1769 26.3459 18.9802 31.0765 19.3372 33.2187V33.3079C19.605 34.9146 19.2479 35.6286 17.9983 35.6286C15.6777 35.5394 11.1256 35.6286 8.89413 35.6286Z" stroke="white" stroke-linecap="round" stroke-linejoin="round"/>
<path d="M29.2448 28.5619C32.2518 28.5619 34.6895 26.1243 34.6895 23.1173C34.6895 20.1102 32.2518 17.6726 29.2448 17.6726C26.2378 17.6726 23.8001 20.1102 23.8001 23.1173C23.8001 26.1243 26.2378 28.5619 29.2448 28.5619Z" stroke="white" stroke-linecap="round" stroke-linejoin="round"/>
<path d="M23.5323 42.4571C21.8364 42.4571 21.3009 41.7431 21.4794 39.5117C22.0149 34.5133 23.9786 30.4074 26.567 29.1578C26.8348 29.0686 29.7803 28.2653 31.6547 29.1578C35.0464 30.7645 36.0283 36.7447 36.4746 39.3331V39.4224C36.8316 41.386 36.3853 42.2786 34.7787 42.2786C32.0117 42.3679 26.4778 42.4571 23.5323 42.4571Z" stroke="white" stroke-linecap="round" stroke-linejoin="round"/>
</mask>
<g mask="url(#mask0_1010_126)">
<path d="M44.7755 24.4562C47.1909 24.4562 49.1491 22.498 49.1491 20.0826C49.1491 17.6671 47.1909 15.709 44.7755 15.709C42.36 15.709 40.4019 17.6671 40.4019 20.0826C40.4019 22.498 42.36 24.4562 44.7755 24.4562Z" stroke="black" stroke-linecap="round" stroke-linejoin="round"/>
<path d="M40.2233 35.6286C38.8844 35.6286 38.4381 35.0038 38.6167 33.3079C39.0629 29.2914 40.5803 25.9889 42.7225 25.007C42.901 24.9178 45.3109 24.293 46.739 25.007C49.506 26.3459 50.3093 31.0765 50.6663 33.2187V33.3079C50.9341 34.9146 50.5771 35.6286 49.3275 35.6286C47.0068 35.5394 42.544 35.6286 40.2233 35.6286Z" stroke="black" stroke-linecap="round" stroke-linejoin="round"/>
<path d="M13.4463 24.4562C15.8618 24.4562 17.8199 22.498 17.8199 20.0826C17.8199 17.6671 15.8618 15.709 13.4463 15.709C11.0309 15.709 9.07274 17.6671 9.07274 20.0826C9.07274 22.498 11.0309 24.4562 13.4463 24.4562Z" stroke="black" stroke-linecap="round" stroke-linejoin="round"/>
<path d="M8.89413 35.6286C7.55528 35.6286 7.10899 35.0038 7.28751 33.3079C7.73379 29.2914 9.25116 25.9889 11.3933 25.007C11.5718 24.9178 13.9818 24.293 15.4099 25.007C18.1769 26.3459 18.9802 31.0765 19.3372 33.2187V33.3079C19.605 34.9146 19.2479 35.6286 17.9983 35.6286C15.6777 35.5394 11.1256 35.6286 8.89413 35.6286Z" stroke="black" stroke-linecap="round" stroke-linejoin="round"/>
<path d="M29.2448 28.5619C32.2518 28.5619 34.6895 26.1243 34.6895 23.1173C34.6895 20.1102 32.2518 17.6726 29.2448 17.6726C26.2378 17.6726 23.8001 20.1102 23.8001 23.1173C23.8001 26.1243 26.2378 28.5619 29.2448 28.5619Z" stroke="black" stroke-linecap="round" stroke-linejoin="round"/>
<path d="M23.5323 42.4571C21.8364 42.4571 21.3009 41.7431 21.4794 39.5117C22.0149 34.5133 23.9786 30.4074 26.567 29.1578C26.8348 29.0686 29.7803 28.2653 31.6547 29.1578C35.0464 30.7645 36.0283 36.7447 36.4746 39.3331V39.4224C36.8316 41.386 36.3853 42.2786 34.7787 42.2786C32.0117 42.3679 26.4778 42.4571 23.5323 42.4571Z" stroke="black" stroke-linecap="round" stroke-linejoin="round"/>
<path d="M54.3752 0H6.04183C3.37245 0 1.2085 2.16396 1.2085 4.83333V53.1667C1.2085 55.836 3.37245 58 6.04183 58H54.3752C57.0445 58 59.2085 55.836 59.2085 53.1667V4.83333C59.2085 2.16396 57.0445 0 54.3752 0Z" fill="#1E306E"/>
</g>
</g>
<defs>
<clipPath id="clip0_1010_126">
<rect width="58" height="58" fill="white"/>
</clipPath>
</defs>
</svg>
