<?xml version="1.0" encoding="UTF-8"?>
<svg width="88px" height="88px" viewBox="0 0 88 88" version="1.1" xmlns="http://www.w3.org/2000/svg" xmlns:xlink="http://www.w3.org/1999/xlink">
    <title>save-icon-02</title>
    <g id="Final" stroke="none" stroke-width="1" fill="none" fill-rule="evenodd">
        <g id="1024-protectionPlan-landingpage-vfinal" transform="translate(-789.000000, -1804.000000)">
            <g id="1024---Head,-88x88-Icon,-Caption-(3)" transform="translate(0.000000, 1636.000000)">
                <g id="save-icon-02" transform="translate(789.000000, 168.000000)">
                    <path d="M48,72 C40.98219,64.1542301 37.4732849,55.1396258 37.4732849,44.956187 C37.4732849,34.7727483 40.98219,24.4540193 48,14 C31.9837423,14 19,26.9837423 19,43 C19,59.0162577 31.9837423,72 48,72 Z" id="Oval" fill="#EBF5FB"></path>
                    <path d="M44,14.2175 C27.5515794,14.2175 14.2175,27.5515794 14.2175,44 C14.2175,60.4484206 27.5515794,73.7825 44,73.7825 C60.4484206,73.7825 73.7825,60.4484206 73.7825,44 C73.767339,27.5578634 60.4421366,14.232661 44,14.2175 Z M44,71.9675 C28.5539763,71.9675 16.0325,59.4460237 16.0325,44 C16.0325,28.5539763 28.5539763,16.0325 44,16.0325 C59.4460237,16.0325 71.9675,28.5539763 71.9675,44 C71.9523407,59.4397402 59.4397402,71.9523407 44,71.9675 L44,71.9675 Z" id="Shape" fill="#1E306E" fill-rule="nonzero"></path>
                    <path d="M44,43.285 C39.215,42.1575 36.52,39.8475 36.85,37.0975 C37.6803288,33.9179828 40.7395778,31.8471065 44,32.2575 C48.4,32.2575 50.5175,34.1825 50.6275,38.335 C50.6693927,38.8237331 51.072127,39.2027772 51.5625,39.215 C52.0681159,39.2001226 52.4702188,38.7858347 52.47,38.28 C52.6186693,36.2317849 51.8929419,34.2164196 50.4726119,32.7331967 C49.0522819,31.2499739 47.0702315,30.4376599 45.0175,30.4975 L45.0175,25.96 C45.0175,25.4588016 44.6111984,25.0525 44.11,25.0525 C43.6088016,25.0525 43.2025,25.4588016 43.2025,25.96 L43.2025,30.47 C39.3727631,30.5038639 36.0699253,33.1689123 35.2275,36.905 C35.0625,38.3075 35.2275,43.065 43.78,45.155 C48.4275,46.2275 51.04,48.565 50.71,51.37 C49.978011,54.4561398 47.1697887,56.5968339 44,56.485 C41.8599098,56.7151767 39.7176483,56.0705147 38.06,54.6975 C37.1500903,53.549399 36.7523208,52.077652 36.96,50.6275 C36.9829038,50.3866027 36.9086491,50.1465346 36.753735,49.9606375 C36.5988208,49.7747405 36.3760784,49.6584122 36.135,49.6375 C35.8896627,49.6147095 35.6456043,49.6926569 35.4588949,49.8534344 C35.2721855,50.0142119 35.1588767,50.2439975 35.145,50.49 C34.8586369,52.4630219 35.4290246,54.464382 36.7125,55.99 C38.5053273,57.5937667 40.8543289,58.4326958 43.2575,58.3275 C43.2575,58.3275 43.2575,58.3275 43.2575,58.4925 L43.2575,62.095 C43.2575,62.5961984 43.6638016,63.0025 44.165,63.0025 C44.6661984,63.0025 45.0725,62.5961984 45.0725,62.095 L45.0725,58.4375 C45.0725,58.4375 45.0725,58.3 45.0725,58.2175 C48.8395827,57.9804735 51.9653702,55.2170961 52.6625,51.5075 C52.58,50.05 52.47,45.2375 44,43.285 Z" id="Path" fill="#1E306E" fill-rule="nonzero"></path>
                    <rect id="Rectangle" x="0" y="0" width="88" height="88"></rect>
                </g>
            </g>
        </g>
    </g>
</svg>