<svg width="88" height="88" viewBox="0 0 88 88" fill="none" xmlns="http://www.w3.org/2000/svg">
<path d="M61.637 48.4269C61.9186 48.1428 62.352 48.0741 62.7077 48.2572C67.726 50.8404 71.8079 54.9319 74.3792 59.9559C74.503 60.1978 74.513 60.4822 74.4067 60.7323C73.7178 62.3515 72.7136 63.8176 71.4626 65.0349C64.5024 72.0225 48.8346 68.2179 38.1501 57.9296C37.9419 57.9061 37.7468 57.8117 37.5986 57.6606C27.1233 46.9797 23.1872 31.0817 30.2058 24.0355C31.4411 22.7941 32.8986 21.7959 34.5026 21.0928C34.7555 20.9819 35.045 20.9909 35.2905 21.1175C40.3115 23.7047 44.4005 27.7933 46.988 32.8137C47.1706 33.1681 47.1032 33.5998 46.8213 33.8817L41.4023 39.3002C43.1686 42.3752 45.1754 45.3061 47.4043 48.0652C50.1238 50.2907 53.0168 52.2948 56.0554 54.0585L61.637 48.4269Z" fill="#D8ECF7"/>
<path fill-rule="evenodd" clip-rule="evenodd" d="M57.2077 46.429C56.852 46.2459 56.4186 46.3146 56.137 46.5988L50.5554 52.2303C47.5168 50.4666 44.6238 48.4625 41.9043 46.2371C39.6754 43.478 37.6686 40.5471 35.9023 37.472L41.3213 32.0536C41.6032 31.7717 41.6706 31.34 41.488 30.9856C38.9005 25.9652 34.8115 21.8766 29.7905 19.2893C29.545 19.1628 29.2555 19.1537 29.0026 19.2646C27.3986 19.9677 25.9411 20.966 24.7058 22.2073C17.6872 29.2536 21.6233 45.1516 32.0986 55.8324C32.2468 55.9835 32.4419 56.0779 32.6501 56.1015C43.3346 66.3898 59.0024 70.1944 65.9626 63.2068C67.2136 61.9894 68.2178 60.5234 68.9067 58.9041C69.013 58.6541 69.003 58.3697 68.8792 58.1278C66.3079 53.1038 62.226 49.0123 57.2077 46.429ZM50.2604 54.173C50.6203 54.3768 51.0721 54.3144 51.3633 54.0206L56.9611 48.3727C61.2407 50.7217 64.746 54.2667 67.0466 58.576C66.4629 59.8173 65.66 60.9444 64.6753 61.9027C58.5365 68.0655 43.7351 64.4039 33.6715 54.5358C33.529 54.3961 33.3456 54.3075 33.1499 54.2816C23.4815 44.2306 19.927 29.6038 26.0067 23.5002C26.9778 22.5243 28.1066 21.7215 29.3447 21.125C33.6517 23.4406 37.1946 26.9534 39.5468 31.2366L34.114 36.6689C33.8236 36.9592 33.7618 37.4071 33.9626 37.7652C35.8764 41.1782 38.0767 44.4225 40.5399 47.463L40.6706 47.5946C43.6726 50.0583 46.8811 52.2592 50.2604 54.173Z" fill="#1E306E"/>
<mask id="mask0_5977_8959" style="mask-type:alpha" maskUnits="userSpaceOnUse" x="21" y="19" width="48" height="48">
<path fill-rule="evenodd" clip-rule="evenodd" d="M57.2077 46.429C56.852 46.2459 56.4186 46.3146 56.137 46.5988L50.5554 52.2303C47.5168 50.4666 44.6238 48.4625 41.9043 46.2371C39.6754 43.478 37.6686 40.5471 35.9023 37.472L41.3213 32.0536C41.6032 31.7717 41.6706 31.34 41.488 30.9856C38.9005 25.9652 34.8115 21.8766 29.7905 19.2893C29.545 19.1628 29.2555 19.1537 29.0026 19.2646C27.3986 19.9677 25.9411 20.966 24.7058 22.2073C17.6872 29.2536 21.6233 45.1516 32.0986 55.8324C32.2468 55.9835 32.4419 56.0779 32.6501 56.1015C43.3346 66.3898 59.0024 70.1944 65.9626 63.2068C67.2136 61.9894 68.2178 60.5234 68.9067 58.9041C69.013 58.6541 69.003 58.3697 68.8792 58.1278C66.3079 53.1038 62.226 49.0123 57.2077 46.429ZM50.2604 54.173C50.6203 54.3768 51.0721 54.3144 51.3633 54.0206L56.9611 48.3727C61.2407 50.7217 64.746 54.2667 67.0466 58.576C66.4629 59.8173 65.66 60.9444 64.6753 61.9027C58.5365 68.0655 43.7351 64.4039 33.6715 54.5358C33.529 54.3961 33.3456 54.3075 33.1499 54.2816C23.4815 44.2306 19.927 29.6038 26.0067 23.5002C26.9778 22.5243 28.1066 21.7215 29.3447 21.125C33.6517 23.4406 37.1946 26.9534 39.5468 31.2366L34.114 36.6689C33.8236 36.9592 33.7618 37.4071 33.9626 37.7652C35.8764 41.1782 38.0767 44.4225 40.5399 47.463L40.6706 47.5946C43.6726 50.0583 46.8811 52.2592 50.2604 54.173Z" fill="white"/>
</mask>
<g mask="url(#mask0_5977_8959)">
</g>
</svg>
