<svg width="88" height="88" viewBox="0 0 88 88" fill="none" xmlns="http://www.w3.org/2000/svg">
<g clip-path="url(#clip0_982_63)">
<path d="M58 54.9C55.7 56 48.9 60 49.3 68.6L49 69.1L45 59.3L45.9 57.2C46.1 57 46.3 56.9 46.4 56.8C46.9 56.4 47.4 56 47.7 55.9C48.1 55.8 48.7 56 49.3 56.2C50.2 56.5 51.3 56.8 52.2 56.4C53.2 56 53.7 55.1 54.2 54.2C54.5 53.7 54.8 53.1 55.1 52.9C55.4 52.7 56.1 52.7 56.7 52.6C56.9 52.6 57.1 52.6 57.2 52.5L58 54.9Z" fill="white"/>
<path d="M50.6998 32.4016C50.4998 31.2016 50.1998 30.5016 49.7998 29.9016C49.7998 29.8016 49.6998 29.8016 49.6998 29.8016C48.7998 28.4016 47.5998 28.1016 46.6998 28.1016C44.5998 28.1016 42.2998 30.2016 42.2998 36.1016C42.2998 41.0016 43.8998 43.9016 46.5998 43.9016C48.2998 43.9016 50.9998 42.8016 51.0998 36.0016C51.0998 34.6016 50.8998 33.4016 50.6998 32.4016ZM46.6998 42.0016C45.1998 42.0016 44.1998 39.7016 44.1998 36.0016C44.1998 32.3016 45.1998 29.9016 46.7998 29.9016C48.8998 29.9016 49.1998 34.1016 49.1998 35.9016C49.1998 37.7016 48.9998 42.0016 46.6998 42.0016Z" fill="#1E306E"/>
<path d="M38.5998 28.6016H36.7998V43.4016H38.5998V28.6016Z" fill="#1E306E"/>
<path d="M44.4008 56L44.3008 56.2L44.5008 56H44.4008Z" fill="#1E306E"/>
<path d="M44.4008 56L44.3008 56.2L44.5008 56H44.4008Z" fill="#1E306E"/>
<path d="M65.8004 36.0984C65.8004 34.9984 65.1004 34.0984 64.5004 33.3984C64.1004 32.8984 63.8004 32.4984 63.7004 32.0984C63.6004 31.6984 63.8004 31.0984 64.0004 30.4984C64.3004 29.5984 64.6004 28.5984 64.2004 27.5984C63.8004 26.5984 62.9004 26.0984 62.0004 25.6984C61.4004 25.3984 60.9004 25.0984 60.7004 24.7984C60.5004 24.4984 60.4004 23.7984 60.4004 23.1984C60.3004 22.1984 60.2004 21.1984 59.4004 20.3984C58.7004 19.6984 57.6004 19.5984 56.6004 19.4984C56.0004 19.3984 55.4004 19.3984 55.0004 19.0984C54.7004 18.8984 54.4004 18.3984 54.1004 17.7984C53.7004 16.8984 53.1004 15.9984 52.2004 15.5984C51.3004 15.1984 50.2004 15.4984 49.3004 15.7984C48.7004 15.9984 48.1004 16.1984 47.7004 16.0984C47.4004 15.9984 46.9004 15.5984 46.4004 15.1984C45.6004 14.5984 44.8004 13.8984 43.8004 13.8984C42.8004 13.8984 41.9004 14.5984 41.2004 15.1984C40.7004 15.5984 40.3004 15.9984 39.9004 16.0984C39.5004 16.1984 38.9004 15.9984 38.3004 15.7984C37.4004 15.5984 36.4004 15.1984 35.4004 15.5984C34.4004 15.9984 33.9004 16.8984 33.5004 17.7984C33.2004 18.2984 32.9004 18.8984 32.6004 19.0984C32.3004 19.2984 31.6004 19.2984 31.0004 19.3984C30.0004 19.4984 29.0004 19.5984 28.2004 20.2984C27.5004 21.0984 27.4004 22.0984 27.3004 23.0984C27.2004 23.6984 27.2004 24.3984 27.0004 24.6984C26.8004 24.9984 26.3004 25.2984 25.7004 25.5984C24.8004 25.9984 23.9004 26.5984 23.5004 27.5984C23.1004 28.4984 23.4004 29.5984 23.7004 30.3984C23.9004 30.9984 24.1004 31.5984 24.0004 31.9984C23.9004 32.2984 23.6004 32.7984 23.2004 33.2984C22.6004 33.9984 21.9004 34.8984 21.9004 35.9984C21.9004 36.9984 22.6004 37.8984 23.2004 38.5984C23.6004 39.0984 24.0004 39.4984 24.1004 39.8984C24.2004 40.2984 24.0004 40.8984 23.8004 41.4984C23.5004 42.3984 23.2004 43.3984 23.6004 44.3984C24.0004 45.3984 24.9004 45.8984 25.8004 46.3984C26.3004 46.6984 26.9004 46.9984 27.1004 47.2984C27.3004 47.5984 27.3004 48.2984 27.4004 48.8984C27.5004 49.8984 27.6004 50.8984 28.3004 51.6984C28.6004 51.9984 29.0004 52.1984 29.3004 52.2984L24.7004 63.5984C24.3004 64.1984 24.4004 64.8984 24.9004 65.3984C25.3004 65.7984 25.9004 65.9984 26.4004 65.8984L34.0004 64.1984L37.8004 70.5984C38.0004 70.8984 38.5004 71.2984 39.1004 71.2984C39.7004 71.2984 40.3004 70.8984 40.5004 70.2984L43.9004 61.7984L47.3004 70.1984C47.5004 70.7984 48.1004 71.1984 48.8004 71.1984C49.4004 71.1984 49.8004 70.8984 50.1004 70.3984L53.8004 64.0984L61.5004 65.7984C62.1004 65.8984 62.7004 65.6984 63.0004 65.1984C63.3004 64.7984 63.4004 64.1984 63.2004 63.5984L58.8004 51.9984C59.0004 51.8984 59.2004 51.7984 59.4004 51.5984C60.1004 50.7984 60.2004 49.7984 60.3004 48.7984C60.4004 48.1984 60.4004 47.5984 60.7004 47.1984C60.9004 46.8984 61.4004 46.5984 61.9004 46.2984C62.8004 45.8984 63.7004 45.2984 64.1004 44.2984C64.5004 43.3984 64.2004 42.3984 63.9004 41.4984C63.7004 40.8984 63.5004 40.2984 63.6004 39.8984C63.7004 39.5984 64.1004 39.0984 64.4004 38.6984C65.1004 37.9984 65.8004 37.1984 65.8004 36.0984ZM43.6004 58.0984L39.2004 68.9984L35.0004 61.9984L26.5004 63.9984L31.1004 52.5984C31.7004 52.6984 32.3004 52.6984 32.6004 52.8984C32.9004 53.0984 33.2004 53.5984 33.5004 54.1984C34.0004 55.0984 34.5004 55.9984 35.5004 56.3984C36.4004 56.7984 37.5004 56.4984 38.3004 56.1984C38.9004 55.9984 39.5004 55.7984 39.9004 55.8984C40.2004 55.9984 40.7004 56.3984 41.2004 56.6984C41.9004 57.2984 42.6004 57.8984 43.6004 57.9984H43.7004L43.6004 58.0984ZM44.3004 56.2984L44.4004 56.0984L44.5004 56.1984L44.3004 56.2984ZM61.7004 63.7984L53.2004 61.8984L49.4004 68.4984L49.1004 68.9984L45.1004 59.1984L46.0004 57.0984C46.2004 56.8984 46.4004 56.7984 46.5004 56.6984C47.0004 56.2984 47.5004 55.8984 47.8004 55.7984C48.2004 55.6984 48.8004 55.8984 49.4004 56.0984C50.3004 56.3984 51.4004 56.6984 52.3004 56.2984C53.3004 55.8984 53.8004 54.9984 54.3004 54.0984C54.6004 53.5984 54.9004 52.9984 55.2004 52.7984C55.5004 52.5984 56.2004 52.5984 56.8004 52.4984C57.0004 52.4984 57.2004 52.4984 57.3004 52.3984L58.2004 54.7984L61.7004 63.7984ZM63.0004 37.5984C62.5004 38.1984 62.0004 38.8984 61.8004 39.6984C61.6004 40.5984 61.9004 41.3984 62.1004 42.1984C62.3004 42.7984 62.5004 43.4984 62.4004 43.7984C62.2004 44.1984 61.6004 44.4984 61.0004 44.7984C60.3004 45.1984 59.5004 45.5984 59.1004 46.2984C58.6004 46.9984 58.5004 47.8984 58.5004 48.6984C58.4004 49.3984 58.4004 50.0984 58.1004 50.2984C57.9004 50.5984 57.1004 50.6984 56.4004 50.6984C55.6004 50.7984 54.8004 50.8984 54.0004 51.2984C53.2004 51.6984 52.9004 52.5984 52.5004 53.2984C52.2004 53.8984 51.9004 54.4984 51.5004 54.5984C51.2004 54.6984 50.5004 54.4984 49.9004 54.3984C49.1004 54.1984 48.3004 53.8984 47.4004 54.0984C46.6004 54.2984 45.9004 54.7984 45.3004 55.2984C44.8004 55.6984 44.2004 56.1984 43.8004 56.1984C43.4004 56.1984 42.8004 55.7984 42.3004 55.2984C41.7004 54.7984 41.0004 54.1984 40.2004 54.0984C40.0004 54.0984 39.8004 53.9984 39.6004 53.9984C38.9004 53.9984 38.3004 54.1984 37.7004 54.3984C37.1004 54.5984 36.4004 54.7984 36.1004 54.5984C35.7004 54.3984 35.4004 53.7984 35.1004 53.1984C34.7004 52.4984 34.3004 51.6984 33.6004 51.2984C32.9004 50.7984 32.0004 50.6984 31.2004 50.5984C30.5004 50.4984 29.8004 50.4984 29.6004 50.1984C29.3004 49.8984 29.2004 49.1984 29.2004 48.4984C29.1004 47.6984 29.0004 46.7984 28.6004 46.0984C28.1004 45.3984 27.3004 44.9984 26.6004 44.5984C26.0004 44.2984 25.4004 43.8984 25.3004 43.5984C25.2004 43.2984 25.4004 42.5984 25.5004 41.9984C25.7004 41.1984 26.0004 40.2984 25.8004 39.4984C25.6004 38.6984 25.1004 37.9984 24.6004 37.3984C24.2004 36.8984 23.7004 36.2984 23.7004 35.8984C23.7004 35.4984 24.2004 34.8984 24.6004 34.3984C25.1004 33.7984 25.7004 33.0984 25.8004 32.2984C26.0004 31.3984 25.7004 30.5984 25.5004 29.7984C25.3004 29.1984 25.1004 28.4984 25.3004 28.1984C25.4004 27.7984 26.1004 27.4984 26.7004 27.1984C27.4004 26.7984 28.2004 26.3984 28.6004 25.6984C29.1004 24.9984 29.2004 24.0984 29.3004 23.2984C29.4004 22.5984 29.4004 21.8984 29.7004 21.6984C30.0004 21.3984 30.7004 21.2984 31.4004 21.2984C32.2004 21.1984 33.1004 21.0984 33.8004 20.6984C34.5004 20.1984 34.9004 19.3984 35.3004 18.6984C35.6004 18.0984 35.9004 17.4984 36.3004 17.3984C36.6004 17.2984 37.3004 17.4984 37.9004 17.5984C38.7004 17.7984 39.6004 18.0984 40.4004 17.8984C41.2004 17.6984 41.9004 17.1984 42.5004 16.6984C43.0004 16.2984 43.6004 15.7984 44.0004 15.7984C44.4004 15.7984 45.0004 16.2984 45.5004 16.6984C46.2004 17.1984 46.8004 17.7984 47.6004 17.8984C48.5004 18.0984 49.3004 17.7984 50.1004 17.5984C50.7004 17.3984 51.4004 17.1984 51.7004 17.3984C52.1004 17.5984 52.4004 18.1984 52.7004 18.7984C53.1004 19.4984 53.5004 20.2984 54.2004 20.6984C54.9004 21.1984 55.8004 21.2984 56.6004 21.3984C57.3004 21.4984 58.0004 21.4984 58.2004 21.7984C58.5004 22.0984 58.6004 22.7984 58.6004 23.4984C58.7004 24.2984 58.8004 25.1984 59.2004 25.8984C59.7004 26.5984 60.5004 26.9984 61.2004 27.3984C61.8004 27.6984 62.4004 27.9984 62.5004 28.3984C62.6004 28.6984 62.4004 29.3984 62.2004 29.9984C62.0004 30.7984 61.7004 31.6984 61.9004 32.4984C62.1004 33.2984 62.6004 33.8984 63.1004 34.4984C63.5004 35.0984 64.0004 35.5984 64.0004 35.9984C63.9004 36.4984 63.5004 37.0984 63.0004 37.5984Z" fill="#1E306E"/>
<path d="M43.8006 20.8984C43.2006 20.8984 42.6006 20.8984 42.0006 20.9984C34.5006 21.8984 28.6006 28.2984 28.6006 36.0984C28.6006 44.4984 35.4006 51.2984 43.8006 51.2984C52.2006 51.2984 59.0006 44.4984 59.0006 36.0984C59.0006 27.6984 52.2006 20.8984 43.8006 20.8984ZM43.8006 49.4984C36.4006 49.4984 30.4006 43.4984 30.4006 36.0984C30.4006 28.6984 36.4006 22.6984 43.8006 22.6984C51.2006 22.6984 57.2006 28.6984 57.2006 36.0984C57.2006 43.4984 51.2006 49.4984 43.8006 49.4984Z" fill="#1E306E"/>
</g>
<defs>
<clipPath id="clip0_982_63">
<rect width="88" height="88" fill="white"/>
</clipPath>
</defs>
</svg>
