<svg width="58" height="58" viewBox="0 0 58 58" fill="none" xmlns="http://www.w3.org/2000/svg">
<g clip-path="url(#clip0_1023_166)">
<mask id="mask0_1023_166" style="mask-type:alpha" maskUnits="userSpaceOnUse" x="7" y="10" width="45" height="33">
<path d="M41.2125 18.0775H39.7311C39.3954 18.0775 39.1233 17.8092 39.1233 17.4783C39.1233 17.1474 39.3954 16.8791 39.7311 16.8791H42.6485C43.1855 16.8791 43.4587 17.5154 43.0849 17.8955L41.1671 19.8452H42.6485C42.9842 19.8452 43.2563 20.1135 43.2563 20.4444C43.2563 20.7753 42.9842 21.0436 42.6485 21.0436H39.7311C39.1941 21.0436 38.9209 20.4073 39.2947 20.0273L41.2125 18.0775ZM50.493 24.4725L51.3402 25.0174C51.9681 25.436 52.1408 26.273 51.7511 26.8633C51.6406 27.0612 51.4753 27.2241 51.3033 27.3164L41.4487 33.3794C40.567 33.9029 39.5986 34.269 38.584 34.4619L20.7403 37.7321C20.3612 37.8065 19.9769 37.8522 19.593 37.8688L14.6014 38.103C14.524 38.1049 14.4479 38.1006 14.3735 38.0906V40.1464C14.3735 41.3215 13.4147 42.278 12.2158 42.2917H7.8578C7.52212 42.2917 7.25 42.0234 7.25 41.6925C7.25 41.3615 7.52212 41.0932 7.8578 41.0932L12.2087 41.0933C12.7347 41.0873 13.1579 40.6651 13.1579 40.1465V36.7669C13.1579 35.9947 14.3189 35.9558 14.3721 36.7263C14.3791 36.8287 14.4668 36.9075 14.5573 36.9054L19.5375 36.6716C19.8619 36.6576 20.1847 36.6192 20.5106 36.5553L38.3579 33.2844C39.2282 33.119 40.0622 32.8036 40.8133 32.3577L50.6885 26.2831C50.7607 26.1691 50.7388 26.0631 50.6677 26.0156L49.8308 25.4775C48.858 24.8569 47.622 24.7991 46.5931 25.3268L40.5012 28.4376C39.8951 28.7446 39.2272 28.9145 38.5423 28.9351L27.9482 29.1867C27.1425 29.2059 27.1068 28.0166 27.9123 27.9888L35.2035 27.7373C35.4854 27.7264 35.7471 27.5985 35.9264 27.389C35.9401 27.3231 35.965 27.2596 36.0004 27.2013C36.2131 26.851 36.2549 26.4249 36.1156 26.0444C35.9911 25.7112 35.671 25.4882 35.3184 25.4838L22.8296 25.4838C22.0376 25.4858 21.2722 25.7661 20.6722 26.2731L14.8359 31.2357C14.3014 31.6874 13.6242 31.9418 12.9087 31.9553H7.8578C7.52212 31.9553 7.25 31.687 7.25 31.3561C7.25 31.0251 7.52212 30.7568 7.8578 30.7568L12.897 30.757C13.3187 30.7489 13.7245 30.5965 14.0434 30.3271L19.8797 25.3644C20.7006 24.6707 21.7453 24.2882 22.828 24.2854L35.326 24.2854C36.1899 24.296 36.9577 24.8309 37.2577 25.6338C37.5031 26.3041 37.4532 27.0422 37.1252 27.6717C37.121 27.7052 37.114 27.7382 37.1043 27.7705L38.5091 27.7371C39.0095 27.7221 39.5003 27.5972 39.9438 27.3725L46.0331 24.2631C47.449 23.537 49.1513 23.6166 50.493 24.4725ZM11.377 35.0172C11.7127 35.0172 11.9848 35.2855 11.9848 35.6164V37.9174C11.9848 38.2484 11.7127 38.5166 11.377 38.5166C11.0413 38.5166 10.7692 38.2484 10.7692 37.9174V35.6164C10.7692 35.2855 11.0413 35.0172 11.377 35.0172ZM36.1207 14.1107C36.6583 14.1107 36.9312 14.7482 36.5562 15.128L34.1875 17.5262H36.1207C36.4564 17.5262 36.7285 17.7945 36.7285 18.1255C36.7285 18.4564 36.4564 18.7247 36.1207 18.7247H32.7474C32.2098 18.7247 31.9369 18.0872 32.3119 17.7074L34.6806 15.3092H32.7474C32.4117 15.3092 32.1396 15.0409 32.1396 14.71C32.1396 14.379 32.4117 14.1107 32.7474 14.1107H36.1207ZM29.4105 10.875C29.9481 10.875 30.2211 11.5125 29.846 11.8922L26.8027 14.9736H29.4105C29.7462 14.9736 30.0184 15.2419 30.0184 15.5728C30.0184 15.9038 29.7462 16.172 29.4105 16.172H25.3626C24.825 16.172 24.5521 15.5345 24.9271 15.1548L27.9704 12.0734H25.3626C25.0269 12.0734 24.7548 11.8051 24.7548 11.4742C24.7548 11.1433 25.0269 10.875 25.3626 10.875H29.4105Z" fill="white"/>
</mask>
<g mask="url(#mask0_1023_166)">
<path d="M41.2125 18.0775H39.7311C39.3954 18.0775 39.1233 17.8092 39.1233 17.4783C39.1233 17.1474 39.3954 16.8791 39.7311 16.8791H42.6485C43.1855 16.8791 43.4587 17.5154 43.0849 17.8955L41.1671 19.8452H42.6485C42.9842 19.8452 43.2563 20.1135 43.2563 20.4444C43.2563 20.7753 42.9842 21.0436 42.6485 21.0436H39.7311C39.1941 21.0436 38.9209 20.4073 39.2947 20.0273L41.2125 18.0775ZM50.493 24.4725L51.3402 25.0174C51.9681 25.436 52.1408 26.273 51.7511 26.8633C51.6406 27.0612 51.4753 27.2241 51.3033 27.3164L41.4487 33.3794C40.567 33.9029 39.5986 34.269 38.584 34.4619L20.7403 37.7321C20.3612 37.8065 19.9769 37.8522 19.593 37.8688L14.6014 38.103C14.524 38.1049 14.4479 38.1006 14.3735 38.0906V40.1464C14.3735 41.3215 13.4147 42.278 12.2158 42.2917H7.8578C7.52212 42.2917 7.25 42.0234 7.25 41.6925C7.25 41.3615 7.52212 41.0932 7.8578 41.0932L12.2087 41.0933C12.7347 41.0873 13.1579 40.6651 13.1579 40.1465V36.7669C13.1579 35.9947 14.3189 35.9558 14.3721 36.7263C14.3791 36.8287 14.4668 36.9075 14.5573 36.9054L19.5375 36.6716C19.8619 36.6576 20.1847 36.6192 20.5106 36.5553L38.3579 33.2844C39.2282 33.119 40.0622 32.8036 40.8133 32.3577L50.6885 26.2831C50.7607 26.1691 50.7388 26.0631 50.6677 26.0156L49.8308 25.4775C48.858 24.8569 47.622 24.7991 46.5931 25.3268L40.5012 28.4376C39.8951 28.7446 39.2272 28.9145 38.5423 28.9351L27.9482 29.1867C27.1425 29.2059 27.1068 28.0166 27.9123 27.9888L35.2035 27.7373C35.4854 27.7264 35.7471 27.5985 35.9264 27.389C35.9401 27.3231 35.965 27.2596 36.0004 27.2013C36.2131 26.851 36.2549 26.4249 36.1156 26.0444C35.9911 25.7112 35.671 25.4882 35.3184 25.4838L22.8296 25.4838C22.0376 25.4858 21.2722 25.7661 20.6722 26.2731L14.8359 31.2357C14.3014 31.6874 13.6242 31.9418 12.9087 31.9553H7.8578C7.52212 31.9553 7.25 31.687 7.25 31.3561C7.25 31.0251 7.52212 30.7568 7.8578 30.7568L12.897 30.757C13.3187 30.7489 13.7245 30.5965 14.0434 30.3271L19.8797 25.3644C20.7006 24.6707 21.7453 24.2882 22.828 24.2854L35.326 24.2854C36.1899 24.296 36.9577 24.8309 37.2577 25.6338C37.5031 26.3041 37.4532 27.0422 37.1252 27.6717C37.121 27.7052 37.114 27.7382 37.1043 27.7705L38.5091 27.7371C39.0095 27.7221 39.5003 27.5972 39.9438 27.3725L46.0331 24.2631C47.449 23.537 49.1513 23.6166 50.493 24.4725ZM11.377 35.0172C11.7127 35.0172 11.9848 35.2855 11.9848 35.6164V37.9174C11.9848 38.2484 11.7127 38.5166 11.377 38.5166C11.0413 38.5166 10.7692 38.2484 10.7692 37.9174V35.6164C10.7692 35.2855 11.0413 35.0172 11.377 35.0172ZM36.1207 14.1107C36.6583 14.1107 36.9312 14.7482 36.5562 15.128L34.1875 17.5262H36.1207C36.4564 17.5262 36.7285 17.7945 36.7285 18.1255C36.7285 18.4564 36.4564 18.7247 36.1207 18.7247H32.7474C32.2098 18.7247 31.9369 18.0872 32.3119 17.7074L34.6806 15.3092H32.7474C32.4117 15.3092 32.1396 15.0409 32.1396 14.71C32.1396 14.379 32.4117 14.1107 32.7474 14.1107H36.1207ZM29.4105 10.875C29.9481 10.875 30.2211 11.5125 29.846 11.8922L26.8027 14.9736H29.4105C29.7462 14.9736 30.0184 15.2419 30.0184 15.5728C30.0184 15.9038 29.7462 16.172 29.4105 16.172H25.3626C24.825 16.172 24.5521 15.5345 24.9271 15.1548L27.9704 12.0734H25.3626C25.0269 12.0734 24.7548 11.8051 24.7548 11.4742C24.7548 11.1433 25.0269 10.875 25.3626 10.875H29.4105Z" fill="black"/>
<path d="M53.1667 0H4.83333C2.16396 0 0 2.16396 0 4.83333V53.1667C0 55.836 2.16396 58 4.83333 58H53.1667C55.836 58 58 55.836 58 53.1667V4.83333C58 2.16396 55.836 0 53.1667 0Z" fill="#1E306E"/>
</g>
</g>
<defs>
<clipPath id="clip0_1023_166">
<rect width="58" height="58" fill="white"/>
</clipPath>
</defs>
</svg>
